<svg width="120" height="32" viewBox="0 0 120 32" fill="none" xmlns="http://www.w3.org/2000/svg">
<path d="M38.9278 10.5279C40.5311 10.5279 41.8878 11.124 42.9978 12.3162L41.6103 13.5958C40.9011 12.8866 40.0069 12.532 38.9278 12.532C37.9719 12.532 37.1703 12.8609 36.5228 13.5187C35.8856 14.1662 35.5669 15.0038 35.5669 16.0316C35.5669 17.0491 35.8856 17.8867 36.5228 18.5445C37.1703 19.2023 37.9719 19.5312 38.9278 19.5312C39.6575 19.5312 40.305 19.3308 40.8703 18.9299V17.0645H38.8969V15.4612H42.9978V19.747C41.8878 20.9392 40.5311 21.5353 38.9278 21.5353C37.4067 21.5353 36.1117 21.0009 35.0428 19.932C33.9739 18.8528 33.4395 17.5527 33.4395 16.0316C33.4395 14.5105 33.9739 13.2155 35.0428 12.1466C36.1117 11.0674 37.4067 10.5279 38.9278 10.5279Z" fill="#181818"/>
<path d="M46.9666 12.1312C48.0355 11.052 49.3305 10.5125 50.8516 10.5125C52.3727 10.5125 53.6677 11.052 54.7366 12.1312C55.8157 13.2001 56.3553 14.4951 56.3553 16.0162C56.3553 17.5373 55.8157 18.8374 54.7366 19.9166C53.6677 20.9855 52.3727 21.5199 50.8516 21.5199C49.3305 21.5199 48.0355 20.9855 46.9666 19.9166C45.8977 18.8374 45.3632 17.5373 45.3632 16.0162C45.3632 14.4951 45.8977 13.2001 46.9666 12.1312ZM53.2566 13.5033C52.6091 12.8455 51.8074 12.5166 50.8516 12.5166C49.8957 12.5166 49.0941 12.8455 48.4466 13.5033C47.8094 14.1611 47.4907 14.9987 47.4907 16.0162C47.4907 17.044 47.8094 17.8867 48.4466 18.5445C49.0941 19.192 49.8957 19.5158 50.8516 19.5158C51.8177 19.5158 52.6193 19.192 53.2566 18.5445C53.9041 17.8867 54.2278 17.044 54.2278 16.0162C54.2278 14.9987 53.9041 14.1611 53.2566 13.5033Z" fill="#181818"/>
<path d="M63.6335 10.5125C65.2368 10.5125 66.5935 11.1086 67.7035 12.3008L66.316 13.5804C65.5863 12.8712 64.6921 12.5166 63.6335 12.5166C62.6777 12.5166 61.876 12.8455 61.2285 13.5033C60.5913 14.1611 60.2727 14.9987 60.2727 16.0162C60.2727 17.044 60.5913 17.8867 61.2285 18.5445C61.876 19.192 62.6777 19.5158 63.6335 19.5158C64.7127 19.5158 65.6068 19.1612 66.316 18.452L67.7035 19.7316C66.5935 20.9238 65.2368 21.5199 63.6335 21.5199C62.1124 21.5199 60.8174 20.9855 59.7485 19.9166C58.6796 18.8374 58.1452 17.5373 58.1452 16.0162C58.1452 14.4951 58.6796 13.2001 59.7485 12.1312C60.8174 11.052 62.1124 10.5125 63.6335 10.5125Z" fill="#181818"/>
<path d="M70.1462 10.6204H73.8154C75.2851 10.6204 76.431 11.0058 77.2533 11.7766C78.0858 12.5372 78.502 13.5084 78.502 14.6904C78.502 15.492 78.2965 16.1858 77.8853 16.7716C77.4845 17.3574 76.9141 17.7942 76.1741 18.082C76.6263 18.3698 77.1608 19.0019 77.7774 19.9783L78.7024 21.412H76.3129L75.6191 20.3328C75.1874 19.6751 74.8483 19.2537 74.6016 19.0687C74.3652 18.8837 73.9849 18.786 73.4608 18.7758H72.2737V21.412H70.1462V10.6204ZM72.2737 12.6245V16.7716H74.0158C74.7558 16.7716 75.3519 16.5969 75.8041 16.2474C76.2563 15.898 76.4824 15.379 76.4824 14.6904C76.4824 14.0326 76.2512 13.5238 75.7887 13.1641C75.3365 12.8044 74.7455 12.6245 74.0158 12.6245H72.2737Z" fill="#181818"/>
<path d="M81.8648 12.1312C82.9337 11.052 84.2286 10.5125 85.7498 10.5125C87.2709 10.5125 88.5659 11.052 89.6347 12.1312C90.7139 13.2001 91.2535 14.4951 91.2535 16.0162C91.2535 17.5373 90.7139 18.8374 89.6347 19.9166C88.5659 20.9855 87.2709 21.5199 85.7498 21.5199C84.2286 21.5199 82.9337 20.9855 81.8648 19.9166C80.7959 18.8374 80.2614 17.5373 80.2614 16.0162C80.2614 14.4951 80.7959 13.2001 81.8648 12.1312ZM88.1547 13.5033C87.5072 12.8455 86.7056 12.5166 85.7498 12.5166C84.7939 12.5166 83.9923 12.8455 83.3448 13.5033C82.7075 14.1611 82.3889 14.9987 82.3889 16.0162C82.3889 17.044 82.7075 17.8867 83.3448 18.5445C83.9923 19.192 84.7939 19.5158 85.7498 19.5158C86.7159 19.5158 87.5175 19.192 88.1547 18.5445C88.8022 17.8867 89.126 17.044 89.126 16.0162C89.126 14.9987 88.8022 14.1611 88.1547 13.5033Z" fill="#181818"/>
<path d="M104.132 21.412H102.868L100.247 14.9216L97.6108 21.412H96.3621L91.9991 10.6204H94.3579L96.9633 17.4962L99.615 10.6204H100.864L103.515 17.4962L106.121 10.6204H108.48L104.132 21.412Z" fill="#181818"/>
<path d="M110.765 10.6204H114.512C116.043 10.6204 117.338 11.1343 118.397 12.162C119.466 13.1795 120 14.4642 120 16.0162C120 17.5681 119.471 18.858 118.412 19.8858C117.353 20.9033 116.053 21.412 114.512 21.412H110.765V10.6204ZM112.893 19.4078H114.512C115.488 19.4078 116.29 19.1098 116.917 18.5137C117.554 17.9073 117.872 17.0748 117.872 16.0162C117.872 14.9576 117.554 14.1302 116.917 13.5341C116.29 12.9277 115.488 12.6245 114.512 12.6245H112.893V19.4078Z" fill="#181818"/>
<path d="M15.8333 5.91853V0C7.08923 0 0 7.08923 0 15.8333C0 24.5774 7.08923 31.6667 15.8333 31.6667V25.7481C10.3556 25.7481 5.91131 21.3038 5.91131 15.8261C5.91853 10.3556 10.3556 5.91853 15.8333 5.91853Z" fill="url(#paint0_linear_3508_5422)"/>
<path d="M23.0177 19.9092L23.1261 31.7101L11.2168 19.8008L23.0177 19.9092Z" fill="url(#paint1_linear_3508_5422)"/>
<path d="M23.0222 12.4731H17.8047V17.6907H23.0222V12.4731Z" fill="url(#paint2_linear_3508_5422)"/>
<defs>
<linearGradient id="paint0_linear_3508_5422" x1="7.91833" y1="0" x2="7.91833" y2="31.6735" gradientUnits="userSpaceOnUse">
<stop stop-color="#1560FA"/>
<stop offset="0.9947" stop-color="#01BBFF"/>
</linearGradient>
<linearGradient id="paint1_linear_3508_5422" x1="26.0267" y1="28.7698" x2="14.1173" y2="16.8593" gradientUnits="userSpaceOnUse">
<stop stop-color="#0089FF"/>
<stop offset="0.9947" stop-color="#01BBFF"/>
</linearGradient>
<linearGradient id="paint2_linear_3508_5422" x1="17.8076" y1="15.0828" x2="23.0285" y2="15.0828" gradientUnits="userSpaceOnUse">
<stop stop-color="#1560FA"/>
<stop offset="0.9947" stop-color="#01BBFF"/>
</linearGradient>
</defs>
</svg>
